<svg xmlns="http://www.w3.org/2000/svg" width="40" height="40" viewBox="0 0 40 40"><path fill-rule="nonzero" d="M20 36c8.8 0 16-7.2 16-16S28.8 4 20 4 4 11.2 4 20s7.2 16 16 16zm8-4.5V26c0-2.2-1.8-4-4-4h-.9c-.6 0-1.2-.3-1.6-.8-.4-.5-.5-1.2-.3-1.8l2-6c.3-.8 1-1.4 1.9-1.4h6.3c1.6 2.3 2.5 5 2.5 8 .1 4.7-2.3 8.9-5.9 11.5zM29.8 10h-4.6c-1.7 0-3.2 1.1-3.8 2.7l-2 6c-.4 1.2-.2 2.5.5 3.6.8 1.1 1.9 1.7 3.2 1.7h.9c1.1 0 2 .9 2 2v6.6c-1.8.9-3.9 1.4-6 1.4-5.6 0-10.4-3.3-12.6-8H10c2.2 0 4-1.8 4-4l.1-7.5c0-1.3-.6-2.5-1.6-3.2l-2-1.5C12.9 7.5 16.3 6 20 6c3.8 0 7.3 1.5 9.8 4zM9.1 11.3l2.1 1.6c.5.4.8 1 .8 1.6l-.1 7.5c0 1.1-.9 2-2 2H6.6c-.4-1.3-.6-2.6-.6-4 0-3.3 1.1-6.3 3.1-8.7z"></path></svg>
